<svg width="1438" height="751" fill="none" xmlns="http://www.w3.org/2000/svg"><g opacity=".05" clip-path="url(#clip0)"><path d="M-268.043 350.467s1.294-2.128 3.739-6.259c1.15-2.002 3.019-4.506 4.889-7.384 1.006-1.502 2.157-2.879 3.307-4.506.575-.752 1.151-1.628 1.87-2.504.719-.876 1.438-1.627 2.157-2.503 5.752-7.01 13.517-15.02 24.014-22.78 5.177-3.881 11.217-7.51 17.831-11.015 6.615-3.505 13.805-6.634 21.427-9.763 15.242-6.133 32.355-11.891 49.179-20.152 16.825-8.136 32.93-19.276 46.735-33.169 7.046-6.759 13.086-14.519 18.407-22.655a185.291 185.291 0 0014.092-25.785c8.197-17.899 14.524-36.674 20.132-55.574 5.608-18.9 10.641-37.925 15.818-56.7 5.177-18.65 10.641-37.05 17.112-54.448C-.863-2.128 6.615-18.775 15.674-33.545c8.916-14.644 19.845-27.661 32.068-37.8 6.04-5.007 12.366-9.513 18.837-13.142 6.471-3.63 12.942-6.51 19.27-8.887 12.654-4.632 24.446-6.884 34.08-8.136a73.553 73.553 0 016.903-.751c2.157-.125 4.17-.376 6.183-.501 3.883-.125 7.046-.375 9.635-.375-2.589 0-5.896.25-9.635.375-1.869.125-3.883.376-6.183.501-2.157.125-4.458.501-6.903.751-9.634 1.252-21.426 3.63-34.08 8.26-6.328 2.379-12.799 5.258-19.126 8.888-6.47 3.63-12.798 8.01-18.838 13.142-12.223 10.14-23.008 23.156-32.067 37.926C6.758-18.4-.719-1.877-7.046 15.52c-6.471 17.523-11.792 35.797-16.969 54.572-5.176 18.65-10.066 37.801-15.674 56.701-5.608 18.9-11.791 37.8-19.988 55.699-4.026 9.012-8.772 17.649-14.092 25.909-5.321 8.136-11.36 16.022-18.407 22.906-13.805 13.894-30.054 25.158-46.879 33.42-16.824 8.386-33.936 14.018-49.179 20.277-7.622 3.129-14.812 6.258-21.283 9.762-6.471 3.505-12.51 7.135-17.687 10.89-10.354 7.635-18.119 15.646-23.727 22.53-.719.876-1.438 1.752-2.013 2.503-.575.876-1.294 1.628-1.87 2.504-1.15 1.627-2.3 3.004-3.307 4.506-1.869 2.878-3.595 5.257-4.745 7.259-2.445 4.006-3.739 6.259-3.739 6.259l-1.438-.751z" fill="url(#paint0_linear)"/><path d="M-264.736 409.921c55.507-75.726 135.747-64.461 206.497-127.92 39.545-35.548 61.978-87.116 66.148-145.319 6.04-84.988 3.739-151.827 85.561-199.766 27.466-16.147 60.252-23.907 94.62-32.919" stroke="url(#paint1_linear)" stroke-miterlimit="10"/><path d="M-262.147 469.125c63.128-68.216 159.186-71.22 237.126-134.93 48.604-39.678 77.94-94.125 72.763-159.337C40.12 75.35 18.119 15.771 124.817-44.309c32.355-18.274 69.312-25.784 100.66-44.309" stroke="url(#paint2_linear)" stroke-miterlimit="10"/><path d="M-259.415 528.328C-188.666 467.748-76.358 450.6 8.34 386.39c57.664-43.684 93.47-101.135 79.522-173.231C65.717 99.007 24.446 46.562 156.167-25.659c37.244-20.402 78.371-27.662 106.699-55.825" stroke="url(#paint3_linear)" stroke-miterlimit="10"/><path d="M-256.683 587.532c78.227-53.07 206.928-84.112 298.385-148.948 67.011-47.438 108.857-108.019 86.136-187.124C91.025 122.789 30.629 76.977 187.515-7.01c42.134-22.654 87.574-29.664 112.739-67.214" stroke="url(#paint4_linear)" stroke-miterlimit="10"/><path d="M-254.382 646.235s1.006-.5 2.876-1.502a372.424 372.424 0 018.484-4.38c7.478-3.755 18.55-9.137 32.786-15.521 14.237-6.384 31.78-13.894 52.056-22.405 20.132-8.511 42.996-17.899 67.874-28.288 24.733-10.514 51.48-22.154 79.09-35.547 27.61-13.393 56.082-28.413 83.547-46.562a391.553 391.553 0 0039.689-29.664c12.511-10.89 24.302-22.656 34.368-35.798 5.033-6.509 9.635-13.393 13.518-20.527 3.882-7.135 7.477-14.52 10.066-22.155 5.32-15.145 7.765-31.292 7.046-47.188l-.144-3.004-.288-3.004c-.143-2.002-.287-4.005-.575-6.008-.575-4.005-1.15-7.885-2.013-11.891-1.582-7.885-4.026-15.52-6.615-23.155-5.464-15.146-11.648-30.166-18.262-44.81-6.471-14.645-13.518-29.039-20.276-43.433-6.615-14.269-13.23-28.538-17.975-42.932-2.301-7.26-4.17-14.519-5.177-21.904-.431-3.63-.719-7.385-.719-11.015 0-3.63.431-7.26 1.007-10.889.719-3.63 1.581-7.135 2.732-10.514 1.294-3.38 2.588-6.76 4.458-9.888 3.451-6.384 7.765-12.267 12.51-17.774 9.635-11.015 20.995-20.152 32.355-28.413 11.504-8.261 23.152-15.52 34.656-22.154a490.547 490.547 0 0116.968-9.513c5.609-3.004 11.073-6.008 16.537-8.637 10.929-5.382 21.714-9.763 31.924-14.018 10.066-4.256 19.557-8.261 27.897-12.392 8.484-4.13 15.818-8.511 22.002-13.017a99.427 99.427 0 0014.955-13.393c3.882-4.256 6.758-8.261 8.772-11.515 1.15-1.627 1.869-3.13 2.588-4.381a57.74 57.74 0 001.726-3.254l1.294-2.629s-.432.876-1.294 2.754a57.81 57.81 0 01-1.726 3.254 152.936 152.936 0 01-2.588 4.38c-2.014 3.255-4.89 7.26-8.772 11.516a99.432 99.432 0 01-14.955 13.393c-6.184 4.506-13.518 8.887-22.002 13.143-8.34 4.255-17.831 8.26-27.897 12.391-10.066 4.256-20.851 8.637-31.78 14.019-5.464 2.628-10.929 5.632-16.537 8.636-5.608 3.004-11.216 6.259-16.968 9.513-11.504 6.634-23.152 13.893-34.656 22.154-11.36 8.261-22.72 17.399-32.355 28.413-4.745 5.507-9.059 11.39-12.511 17.774-1.725 3.129-3.163 6.508-4.314 9.888-1.15 3.379-2.013 6.884-2.732 10.514-.575 3.63-.863 7.134-1.006 10.764 0 3.63.287 7.26.719 11.015 1.006 7.26 2.876 14.644 5.176 21.779 4.746 14.394 11.361 28.538 17.975 42.807 6.759 14.269 13.661 28.663 20.276 43.308 6.615 14.644 12.798 29.664 18.263 44.809 2.588 7.635 5.177 15.396 6.615 23.281 1.006 3.88 1.438 7.886 2.013 11.891.287 2.003.431 4.005.575 6.008l.288 3.004.143 3.004c.719 16.021-1.725 32.168-7.046 47.438-2.588 7.635-6.039 15.02-10.066 22.28-3.882 7.134-8.484 14.019-13.517 20.652-9.922 13.143-21.858 25.034-34.368 36.048-12.655 10.89-26.028 20.778-39.833 29.79-27.466 18.149-56.082 33.294-83.691 46.687-27.61 13.393-54.357 25.034-79.09 35.673-24.734 10.514-47.598 19.901-67.874 28.413-20.132 8.511-37.676 16.021-51.912 22.404-14.236 6.384-25.309 11.766-32.786 15.521a375.75 375.75 0 00-8.484 4.381c-1.87 1.001-2.876 1.502-2.876 1.502l-.144-1.127z" fill="url(#paint5_linear)"/><path d="M-249.349 657.626c117.197-63.209 328.87-93.25 418.314-203.521 36.669-45.186 42.421-94.126 23.871-152.328-4.458-13.894-8.772-27.161-12.511-39.928-23.871-78.98-41.27-113.276 2.013-156.959 22.289-22.656 57.808-47.063 109.288-78.355 45.154-27.411 87.575-43.182 99.222-93.374" stroke="url(#paint6_linear)" stroke-miterlimit="10"/><path d="M-244.604 668.39c125.969-69.092 347.133-72.597 442.329-195.26 38.97-50.067 36.381-100.509 20.132-159.462-3.883-14.394-7.478-28.288-10.066-42.181C192.117 188 190.104 162.341 248.055 120.16c29.767-21.654 69.311-46.562 116.046-79.105 43.284-30.165 78.515-54.698 79.666-108.02" stroke="url(#paint7_linear)" stroke-miterlimit="10"/><path d="M-240.721 679.154c134.74-74.974 365.252-52.069 466.343-186.873 41.271-54.949 30.342-106.768 16.25-166.597-3.452-14.77-6.184-29.414-7.478-44.309-7.478-87.992 5.752-105.265 78.515-145.819 37.1-20.778 80.815-46.062 122.805-79.732 41.271-33.169 69.455-66.338 60.108-122.788" stroke="url(#paint8_linear)" stroke-miterlimit="10"/><path d="M-238.852 689.919c143.656-80.858 383.371-31.542 490.358-178.613 43.572-59.955 24.302-113.151 12.511-173.731-2.876-15.271-4.889-30.666-4.889-46.437.431-92.498 29.191-101.385 116.765-140.187 44.578-19.901 92.032-45.811 129.564-80.482 39.114-36.173 60.54-77.979 40.695-137.433" stroke="url(#paint9_linear)" stroke-miterlimit="10"/><path d="M-238.852 700.307l3.451-1.877a177.311 177.311 0 014.314-2.253 468.61 468.61 0 016.04-3.004c9.203-4.506 22.864-10.514 41.271-16.522 18.406-6.008 41.27-11.515 68.017-16.146 26.747-4.632 57.232-8.136 90.45-11.641 33.218-3.505 69.312-7.009 106.987-13.643 18.838-3.255 37.964-7.51 56.945-13.143 19.126-5.632 37.963-12.892 55.938-22.154 36.094-18.4 67.155-46.562 87.718-80.357 5.033-8.386 9.347-17.398 12.367-26.535 3.164-9.263 5.033-18.775 5.896-28.413 1.726-19.276-1.007-38.802-4.745-57.827-3.883-19.151-8.772-38.176-11.648-57.327-1.438-9.637-2.445-19.275-2.732-28.913-.288-9.638.431-19.276 1.438-28.788 1.15-9.513 2.732-19.026 5.32-28.163.575-2.378 1.438-4.631 2.157-6.884.719-2.253 1.726-4.506 2.445-6.759 1.869-4.381 4.026-8.762 6.615-12.892 2.444-4.131 5.464-8.136 8.771-11.766 1.726-1.752 3.308-3.63 5.321-5.257 1.726-1.752 3.739-3.254 5.752-4.881 7.909-6.134 16.968-11.14 26.315-15.396 9.347-4.256 18.838-7.76 28.329-11.265a1579.825 1579.825 0 0128.329-9.763c18.694-6.383 37.1-12.642 54.5-19.776 17.4-7.01 33.793-14.77 49.179-23.156 15.243-8.386 29.336-17.523 41.846-27.161 25.165-19.276 43.428-41.68 53.206-63.71a120.352 120.352 0 009.203-32.168c.288-2.503.576-5.007.719-7.51.144-2.503.144-4.881.144-7.26.144-2.378-.144-4.63-.144-6.884-.143-2.253-.143-4.38-.431-6.508-1.007-8.512-2.588-15.897-4.458-22.405-.431-1.628-.863-3.13-1.438-4.632-.431-1.502-.863-2.878-1.294-4.255-1.007-2.629-1.869-5.132-2.732-7.26-.719-2.128-1.726-4.005-2.445-5.632-.719-1.627-1.294-3.004-1.869-4.13-1.007-2.254-1.438-3.38-1.438-3.38s.575 1.126 1.438 3.38c.431 1.126 1.15 2.503 1.869 4.13.719 1.627 1.582 3.504 2.445 5.632.863 2.128 1.725 4.631 2.732 7.26.575 1.377.863 2.753 1.438 4.255.431 1.503.863 3.005 1.438 4.632 1.869 6.383 3.451 13.893 4.458 22.404.287 2.128.287 4.256.431 6.51.144 2.252.288 4.505.288 6.883 0 2.379 0 4.757-.144 7.26-.288 2.503-.431 5.007-.719 7.51-1.294 10.139-4.17 21.028-9.059 32.168-9.779 22.154-28.041 44.56-53.206 63.835-12.511 9.638-26.603 18.775-41.846 27.161-15.243 8.386-31.78 16.147-49.18 23.156s-35.806 13.393-54.5 19.776c-9.347 3.255-18.838 6.384-28.329 9.888-9.49 3.38-18.981 7.01-28.328 11.265-9.203 4.256-18.263 9.138-26.172 15.271-2.013 1.627-3.882 3.129-5.752 4.881-1.869 1.627-3.451 3.505-5.177 5.257-3.163 3.755-6.183 7.51-8.628 11.766-2.588 4.13-4.601 8.511-6.471 12.892-.862 2.253-1.725 4.506-2.444 6.759-.719 2.253-1.438 4.506-2.013 6.884-2.589 9.263-4.171 18.65-5.321 28.163-1.15 9.512-1.726 19.15-1.438 28.788.288 9.638 1.294 19.276 2.732 28.788 3.02 19.151 7.909 38.176 11.648 57.327 3.883 19.15 6.615 38.676 4.889 58.077-.863 9.638-2.732 19.276-5.896 28.538-3.019 9.262-7.333 18.274-12.366 26.786-20.564 33.92-51.768 62.082-88.006 80.732-17.975 9.388-36.957 16.647-56.082 22.28-19.125 5.632-38.251 9.888-57.089 13.142-37.675 6.634-73.769 10.139-107.13 13.769-33.218 3.504-63.704 7.009-90.451 11.64-26.747 4.506-49.611 10.139-67.873 16.147-18.263 5.882-32.068 11.891-41.127 16.396-2.301 1.127-4.314 2.128-5.896 3.004-1.726.877-3.164 1.753-4.314 2.254l-3.451 1.877-1.007-1.127z" fill="url(#paint10_linear)"/><path d="M-238.852 707.317c157.893-85.739 430.25-13.643 548.741-168.349 58.527-77.103 7.909-157.46 24.877-237.567 20.276-95.627 63.704-94.375 168.678-133.803 121.367-45.936 221.739-123.54 154.01-246.829" stroke="url(#paint11_linear)" stroke-miterlimit="10"/><path d="M-239.571 713.951c163.5-84.863 459.441-15.896 583.109-166.472 59.677-72.722 16.681-168.099 43.284-245.827 32.211-94.251 74.776-91.372 182.338-132.927C702.175 116.781 797.515 36.048 719.719-91.622" stroke="url(#paint12_linear)" stroke-miterlimit="10"/><path d="M-240.434 720.459c168.965-83.986 488.201-18.524 617.334-164.594 60.54-68.466 25.452-178.738 61.546-253.963 44.578-92.874 85.849-88.368 195.856-132.176 144.663-57.952 235.113-141.689 147.251-273.739" stroke="url(#paint13_linear)" stroke-miterlimit="10"/><path d="M-241.584 726.968c174.43-83.111 516.817-21.153 651.702-162.717 61.402-64.335 34.512-189.377 79.952-262.224 56.945-91.371 96.778-85.363 209.373-131.3 156.311-64.085 241.584-150.826 143.8-287.257" stroke="url(#paint14_linear)" stroke-miterlimit="10"/><path d="M-243.31 732.976s1.582-.626 4.602-2.003c3.02-1.376 7.478-3.129 13.373-5.507 3.02-1.127 6.328-2.378 10.066-3.63 3.739-1.251 7.766-2.753 12.223-4.005 8.772-2.879 19.126-5.758 30.774-8.637 23.295-5.757 52.055-11.139 85.417-15.771 33.361-4.631 71.18-8.511 112.451-12.141 41.271-3.755 85.993-7.385 133.159-12.767 23.583-2.753 47.742-5.883 72.188-10.013 24.446-4.131 49.323-9.137 74.057-15.771 24.733-6.634 49.323-15.145 72.763-26.285 23.295-11.14 45.44-25.159 63.703-42.682 9.347-8.636 16.537-18.9 22.433-29.539 5.896-10.765 10.353-22.03 14.236-33.545 7.478-23.031 12.223-46.812 16.968-70.594 4.602-23.782 9.06-47.563 15.531-70.844 3.307-11.641 7.046-23.156 11.935-34.421 4.889-11.14 10.785-22.029 18.263-31.918 3.882-4.881 7.765-9.637 11.647-14.519l1.438-1.752 1.582-1.753 3.164-3.504c2.013-2.378 4.17-4.631 6.183-7.01 1.007-1.126 2.157-2.253 3.164-3.379l3.307-3.38c2.157-2.253 4.458-4.38 6.615-6.633 2.301-2.128 4.745-4.131 7.046-6.259l3.452-3.129c1.15-1.126 2.444-2.003 3.738-3.004 2.445-1.877 5.033-3.88 7.478-5.758 1.15-1.001 2.588-1.877 3.883-2.753l3.882-2.629 3.883-2.628c1.294-.876 2.732-1.627 4.026-2.504 2.732-1.627 5.465-3.254 8.197-4.756 2.876-1.377 5.752-2.879 8.484-4.256 1.438-.751 2.876-1.502 4.314-2.127l4.314-1.878c2.876-1.252 5.752-2.628 8.772-3.88 3.02-1.127 5.895-2.378 8.915-3.505 2.876-1.251 5.896-2.253 8.916-3.379 3.02-1.127 5.896-2.253 8.916-3.255l17.687-6.383c11.792-4.256 23.439-8.386 34.8-12.767 22.864-8.637 45.009-17.774 66.004-27.412 20.995-9.763 40.839-20.151 59.101-31.416 18.263-11.265 34.944-23.281 49.18-36.424 14.236-13.142 26.028-27.286 34.512-41.93 8.484-14.77 13.374-30.04 15.243-44.56 1.869-14.645.863-28.413-1.726-40.93-.287-1.502-.719-3.129-1.006-4.63-.144-.752-.288-1.503-.576-2.254-.287-.75-.431-1.502-.719-2.253a372.028 372.028 0 00-2.588-8.636 563.556 563.556 0 00-3.02-8.136c-.431-1.377-1.006-2.629-1.438-3.88l-1.725-3.755c-1.151-2.504-2.157-4.882-3.164-7.135-1.006-2.253-2.301-4.506-3.451-6.634s-2.157-4.255-3.308-6.258c-1.15-2.003-2.3-3.88-3.307-5.632-4.17-7.385-8.34-13.268-11.648-18.15-.719-1.251-1.582-2.378-2.444-3.379-.719-1.001-1.438-2.003-2.157-2.879a178.343 178.343 0 01-3.308-4.631c-1.869-2.503-2.732-3.755-2.732-3.755s.863 1.252 2.732 3.755c.863 1.252 2.014 2.754 3.308 4.506.719.876 1.438 1.877 2.157 2.879.719 1.001 1.581 2.128 2.444 3.379 3.164 4.882 7.478 10.765 11.648 18.15 1.007 1.877 2.157 3.754 3.307 5.632 1.007 2.002 2.158 4.005 3.308 6.258 1.15 2.128 2.301 4.256 3.451 6.634 1.007 2.378 2.157 4.756 3.164 7.134l1.725 3.755c.432 1.252 1.007 2.629 1.438 3.88a564.439 564.439 0 013.02 8.137l2.588 8.636c.288.751.432 1.502.719 2.253.144.751.288 1.502.576 2.253.287 1.502.719 3.13 1.006 4.631 2.589 12.517 3.595 26.285 1.726 40.93-1.869 14.519-6.759 29.914-15.243 44.559-8.484 14.77-20.276 28.913-34.512 42.056-14.236 13.143-31.061 25.159-49.18 36.424-18.262 11.265-38.106 21.653-59.101 31.416-20.995 9.763-43.14 18.775-66.004 27.537a1607.705 1607.705 0 01-34.8 12.767l-17.687 6.383c-3.02 1.127-5.896 2.254-8.916 3.255-3.02 1.126-5.896 2.253-8.916 3.379-2.876 1.127-5.895 2.379-8.915 3.505-2.876 1.252-5.752 2.503-8.772 3.88l-4.314 1.878c-1.438.626-2.876 1.377-4.314 2.128-2.876 1.376-5.608 2.878-8.484 4.255-2.732 1.627-5.465 3.129-8.197 4.757-1.294.876-2.732 1.502-4.026 2.503l-3.883 2.628-3.882 2.629c-1.295.876-2.733 1.752-3.883 2.754-2.445 1.877-4.889 3.88-7.478 5.757-1.15 1.002-2.588 1.878-3.738 3.004l-3.452 3.129c-2.301 2.128-4.601 4.131-7.046 6.259-2.157 2.253-4.314 4.38-6.615 6.634l-3.307 3.379c-1.15 1.127-2.157 2.253-3.164 3.38-2.013 2.378-4.17 4.631-6.183 7.009l-3.164 3.505-1.582 1.752-1.438 1.752c-3.882 4.882-7.908 9.638-11.647 14.52-7.478 9.888-13.374 20.652-18.263 31.792-4.889 11.14-8.628 22.655-11.935 34.295-6.471 23.282-10.929 47.063-15.531 70.845-4.601 23.782-9.347 47.563-16.968 70.594-3.739 11.515-8.34 22.905-14.236 33.67-2.876 5.382-6.327 10.639-9.922 15.646-.863 1.251-2.014 2.503-2.876 3.629-1.007 1.252-2.014 2.504-3.02 3.63l-3.308 3.38c-1.006 1.126-2.157 2.253-3.307 3.379-18.406 17.524-40.552 31.667-63.991 42.932s-48.173 19.652-72.907 26.411c-24.733 6.759-49.611 11.765-74.2 15.896-24.59 4.13-48.749 7.259-72.332 10.013-47.166 5.382-91.888 9.012-133.159 12.767-41.27 3.755-79.09 7.635-112.307 12.266-33.218 4.631-61.978 10.014-85.274 15.771-11.648 2.879-21.857 5.758-30.773 8.637-4.458 1.377-8.484 2.754-12.223 4.005-3.739 1.252-7.046 2.629-9.922 3.63-5.896 2.378-10.354 4.131-13.374 5.507-3.019 1.252-4.601 2.003-4.601 2.003l.287-.751z" fill="url(#paint15_linear)"/><path d="M-147.826 749.122c176.155-80.482 533.929-23.531 671.833-157.459 60.828-58.954 42.853-195.636 96.346-264.728 68.161-87.867 105.549-80.607 218.432-127.795C1003.15 130.549 1081.95 42.557 976.258-95.252" stroke="url(#paint16_linear)" stroke-miterlimit="10"/><path d="M-52.775 764.643c172.56-78.73 522.57-23.031 657.598-154.08 59.533-57.702 41.846-191.505 94.333-259.095 66.723-85.99 103.392-78.98 213.83-125.041C1073.9 159.212 1150.98 73.097 1047.58-61.707" stroke="url(#paint17_linear)" stroke-miterlimit="10"/><path d="M42.421 780.164c168.821-77.103 511.353-22.53 643.361-150.701 58.239-56.575 40.983-187.374 92.32-253.587 65.285-84.112 101.091-77.228 209.085-122.288 157.463-65.713 232.953-150.075 131.723-282" stroke="url(#paint18_linear)" stroke-miterlimit="10"/><path d="M137.473 795.685c165.082-75.351 499.992-22.03 629.125-147.447 56.944-55.323 40.12-183.244 90.306-247.955 63.847-82.234 98.934-75.475 204.486-119.659 154.01-64.211 227.78-146.57 128.84-275.617" stroke="url(#paint19_linear)" stroke-miterlimit="10"/><path d="M232.381 810.705l4.026-1.753c2.589-1.251 6.759-2.879 12.079-5.007 10.642-4.005 26.603-9.512 47.598-14.644 20.851-5.132 46.735-10.013 76.646-14.144 29.91-4.13 63.703-7.635 100.803-10.889 36.957-3.38 77.077-6.634 119.354-11.39 21.139-2.379 42.709-5.257 64.71-8.887 22.002-3.63 44.291-8.136 66.436-14.144 22.145-6.008 44.29-13.518 65.141-23.532 20.851-10.013 40.696-22.529 57.089-38.3 8.34-7.761 14.811-16.898 19.988-26.536 5.321-9.638 9.347-19.776 12.655-30.04 6.758-20.652 11.072-41.931 15.242-63.209 4.171-21.278 8.053-42.557 13.949-63.459 2.876-10.389 6.327-20.778 10.785-30.791 4.314-10.014 9.635-19.777 16.393-28.664 3.451-4.381 7.046-8.636 10.498-13.017l1.294-1.627 1.438-1.627 2.732-3.13c1.869-2.127 3.739-4.13 5.608-6.258.863-1.001 1.87-2.002 2.876-3.004l3.02-3.004c2.013-2.002 3.883-4.005 5.896-6.008 2.157-1.877 4.17-3.755 6.327-5.632 2.157-1.878 4.17-3.755 6.471-5.508 2.301-1.752 4.458-3.504 6.615-5.257 1.15-.876 2.301-1.627 3.451-2.503l3.595-2.378 3.595-2.378c1.15-.751 2.449-1.502 3.739-2.253 2.44-1.377 4.89-2.879 7.33-4.256 10.21-5.257 20.57-10.013 31.21-14.144 5.32-2.128 10.64-4.005 15.96-6.008 5.32-1.877 10.64-3.88 15.96-5.758 10.5-3.755 21-7.509 31.21-11.39 20.56-7.76 40.26-15.896 59.1-24.657 18.84-8.762 36.52-18.024 52.92-28.163 16.39-10.138 31.35-20.903 44.14-32.668 12.8-11.766 23.3-24.408 30.92-37.55 7.62-13.143 11.94-26.911 13.66-39.929 1.73-13.017.72-25.408-1.58-36.673-.29-1.377-.58-2.754-.86-4.131-.15-.626-.29-1.377-.43-2.003-.15-.625-.44-1.376-.58-2.002-.72-2.629-1.58-5.257-2.3-7.761-.86-2.503-1.87-4.881-2.73-7.26-.43-1.126-.87-2.378-1.3-3.504-.57-1.126-1-2.253-1.44-3.38-1-2.252-2.01-4.38-2.87-6.383-1.01-2.128-2.01-4.005-3.02-5.883-1.01-1.877-2.01-3.755-2.88-5.507-1-1.752-2.01-3.38-3.02-5.132-3.74-6.634-7.47-11.89-10.35-16.272-3.02-4.38-5.46-7.51-7.05-9.763-1.58-2.253-2.44-3.38-2.44-3.38s.86 1.127 2.44 3.38c1.59 2.253 4.03 5.383 7.05 9.763 2.88 4.381 6.61 9.763 10.35 16.272 1.01 1.627 2.02 3.38 3.02 5.132 1.01 1.752 1.87 3.63 2.88 5.507 1.01 1.878 2.01 3.88 3.02 5.883.86 2.128 1.87 4.256 2.87 6.384.44 1.126 1.01 2.253 1.44 3.379.43 1.126.87 2.378 1.3 3.505.86 2.378 1.72 4.756 2.73 7.259.72 2.504 1.44 5.132 2.3 7.761.14.626.43 1.377.58 2.002.14.626.28 1.377.43 2.003.28 1.377.57 2.754.86 4.131 2.3 11.139 3.31 23.656 1.58 36.673-1.72 13.018-6.04 26.786-13.66 39.929-7.62 13.142-18.26 25.909-30.92 37.675-12.79 11.765-27.75 22.53-44.14 32.668-16.4 10.139-34.23 19.401-52.92 28.163-18.84 8.761-38.68 16.897-59.1 24.658-10.21 3.88-20.71 7.635-31.21 11.515-5.32 1.877-10.64 3.755-15.96 5.758-5.32 2.002-10.64 3.88-15.96 6.008-10.64 4.13-21 8.761-31.06 14.143-2.45 1.377-4.89 2.879-7.34 4.256-1.15.751-2.44 1.377-3.591 2.253l-3.452 2.378-3.451 2.378c-1.15.751-2.444 1.502-3.451 2.504-2.157 1.752-4.458 3.504-6.615 5.257-2.301 1.627-4.314 3.63-6.471 5.507-2.157 1.878-4.17 3.755-6.327 5.633-2.013 2.002-3.883 4.005-5.896 6.008l-3.02 3.004c-1.006 1.001-2.013 2.002-2.876 3.004-1.869 2.127-3.738 4.13-5.608 6.258l-2.732 3.129-1.438 1.627-1.294 1.627c-3.451 4.381-7.046 8.637-10.498 13.018-6.758 8.887-11.935 18.524-16.249 28.538-4.314 10.013-7.765 20.277-10.641 30.791-5.752 20.902-9.779 42.181-13.949 63.459-4.17 21.279-8.34 42.557-15.099 63.335-3.451 10.388-7.477 20.527-12.798 30.165-2.588 4.881-5.608 9.512-8.916 14.018a123.626 123.626 0 01-5.32 6.509l-2.876 3.129c-1.007 1.002-1.87 2.128-3.02 3.004-16.537 15.771-36.381 28.413-57.232 38.426-20.995 10.014-43.14 17.649-65.286 23.657-22.289 6.008-44.578 10.514-66.435 14.269-22.002 3.755-43.715 6.508-64.71 9.012-42.277 4.881-82.398 8.136-119.354 11.515-36.957 3.38-70.894 6.759-100.66 11.015-29.767 4.13-55.651 9.012-76.358 14.144-10.354 2.628-19.557 5.132-27.466 7.635a387.633 387.633 0 00-19.844 6.884c-5.321 2.128-9.347 3.755-11.936 4.881-2.732 1.127-4.026 1.753-4.026 1.753l-1.294-1.001z" fill="url(#paint20_linear)"/><path d="M1050.46 922.979c365.54-8.261 529.47-236.815 601.23-538.968" stroke="#55FFB5" stroke-width="2" stroke-miterlimit="10" stroke-linecap="round" stroke-dasharray="2.02 2.02"/><path d="M986.18 902.452c203.48-11.641 334.05-94.501 435-214.661 58.81-70.093 107.56-144.442 151.56-226.427 20.42-38.05 41.13-77.728 52.92-123.789" stroke="#55FFB5" stroke-width="2" stroke-miterlimit="10" stroke-linecap="round" stroke-dasharray="2.08 2.08"/><path d="M913.993 882.675c213.977-17.022 338.217-114.778 444.337-246.453 61.41-76.477 116.48-147.571 173-224.549 26.31-35.923 55.36-72.722 68.44-121.411" stroke="#55FFB5" stroke-width="2" stroke-miterlimit="10" stroke-linecap="round" stroke-dasharray="1.97 1.97"/><path d="M850.289 862.398c219.871-24.157 335.341-136.181 445.351-277.87 63.99-82.86 125.25-150.575 194.56-222.671 32.07-33.294 69.45-67.215 83.69-117.907" stroke="#55FFB5" stroke-width="2" stroke-miterlimit="10" stroke-linecap="round" stroke-dasharray="2.04 2.04"/><path d="M779.252 843.248c230.658-29.79 338.508-156.959 453.548-310.288 66.58-89.244 134.02-153.705 215.99-220.794 37.81-31.042 83.97-61.958 99.07-115.279" stroke="#55FFB5" stroke-width="2" stroke-miterlimit="10" stroke-linecap="round" stroke-dasharray="1.96 1.96"/><path d="M715.836 823.096c236.408-37.049 335.484-178.613 454.124-341.955 69.31-95.628 142.79-156.959 237.41-218.917 43.43-28.413 98.07-56.2 114.32-111.648" stroke="#55FFB5" stroke-width="2" stroke-miterlimit="10" stroke-linecap="round" stroke-dasharray="2.04 2.04"/><path d="M645.662 804.196c247.336-42.557 337.93-199.766 461.598-374.624 71.9-102.011 151.42-160.213 258.98-217.039 49.33-26.035 112.89-50.818 129.86-109.02" stroke="#55FFB5" stroke-width="2" stroke-miterlimit="10" stroke-linecap="round" stroke-dasharray="1.97 1.97"/><path d="M582.246 784.294c253.088-49.941 334.767-221.545 462.034-406.291 74.48-108.269 160.05-163.592 280.41-215.161 54.93-23.531 126.97-45.06 144.95-105.39" stroke="#55FFB5" stroke-width="2" stroke-miterlimit="10" stroke-linecap="round" stroke-dasharray="2.06 2.06"/><path d="M512.647 765.645c264.017-55.574 336.78-242.949 468.932-439.335 77.081-114.778 168.531-167.223 301.831-213.41 60.83-21.278 141.94-39.427 160.49-102.636" stroke="#55FFB5" stroke-width="2" stroke-miterlimit="10" stroke-linecap="round" stroke-dasharray="2.01 2.01"/><path d="M382.652 757.759a708.82 708.82 0 0047.166-7.76m13.661-3.004c274.946-61.207 338.505-264.603 475.259-472.379C998.403 153.58 1096.04 104.139 1242 63.084c66.72-18.775 156.89-33.795 175.87-99.758" stroke="#55FFB5" stroke-width="2" stroke-miterlimit="10" stroke-linecap="round" stroke-dasharray="1.96 1.96"/></g><defs><linearGradient id="paint0_linear" x1="-268.084" y1="123.928" x2="150.675" y2="123.928" gradientUnits="userSpaceOnUse"><stop stop-color="#C2465C"/><stop offset="1" stop-color="#FF9CF7"/></linearGradient><linearGradient id="paint1_linear" x1="-265.368" y1="156.878" x2="188.282" y2="156.878" gradientUnits="userSpaceOnUse"><stop stop-color="#B55A74"/><stop offset="1" stop-color="#EA9CF7"/></linearGradient><linearGradient id="paint2_linear" x1="-262.636" y1="190.173" x2="225.881" y2="190.173" gradientUnits="userSpaceOnUse"><stop stop-color="#A86E8C"/><stop offset="1" stop-color="#D49CF7"/></linearGradient><linearGradient id="paint3_linear" x1="-259.895" y1="223.479" x2="263.418" y2="223.479" gradientUnits="userSpaceOnUse"><stop stop-color="#9B81A3"/><stop offset="1" stop-color="#BF9CF7"/></linearGradient><linearGradient id="paint4_linear" x1="-257.146" y1="256.779" x2="300.898" y2="256.779" gradientUnits="userSpaceOnUse"><stop stop-color="#8E95BB"/><stop offset="1" stop-color="#A99CF7"/></linearGradient><linearGradient id="paint5_linear" x1="-254.387" y1="290.185" x2="338.348" y2="290.185" gradientUnits="userSpaceOnUse"><stop stop-color="#81A9D3"/><stop offset="1" stop-color="#949CF7"/></linearGradient><linearGradient id="paint6_linear" x1="-249.657" y1="295.521" x2="391.433" y2="295.521" gradientUnits="userSpaceOnUse"><stop stop-color="#9A9CC4"/><stop offset="1" stop-color="#949CF7"/></linearGradient><linearGradient id="paint7_linear" x1="-244.922" y1="300.977" x2="444.498" y2="300.977" gradientUnits="userSpaceOnUse"><stop stop-color="#B390B5"/><stop offset="1" stop-color="#949CF7"/></linearGradient><linearGradient id="paint8_linear" x1="-241.081" y1="306.339" x2="498.445" y2="306.339" gradientUnits="userSpaceOnUse"><stop stop-color="#CD83A5"/><stop offset="1" stop-color="#949CF7"/></linearGradient><linearGradient id="paint9_linear" x1="-239.222" y1="311.696" x2="554.373" y2="311.696" gradientUnits="userSpaceOnUse"><stop stop-color="#E67796"/><stop offset="1" stop-color="#949CF7"/></linearGradient><linearGradient id="paint10_linear" x1="-238.888" y1="317.186" x2="611.118" y2="317.186" gradientUnits="userSpaceOnUse"><stop stop-color="#FF6A87"/><stop offset="1" stop-color="#949CF7"/></linearGradient><linearGradient id="paint11_linear" x1="-239.27" y1="314.158" x2="679.919" y2="314.158" gradientUnits="userSpaceOnUse"><stop stop-color="#DC8296"/><stop offset="1" stop-color="#949CF7"/></linearGradient><linearGradient id="paint12_linear" x1="-239.93" y1="311.257" x2="748.289" y2="311.257" gradientUnits="userSpaceOnUse"><stop stop-color="#B99AA5"/><stop offset="1" stop-color="#949CF7"/></linearGradient><linearGradient id="paint13_linear" x1="-240.839" y1="308.356" x2="816.907" y2="308.356" gradientUnits="userSpaceOnUse"><stop stop-color="#95B2B5"/><stop offset="1" stop-color="#949CF7"/></linearGradient><linearGradient id="paint14_linear" x1="-241.963" y1="305.457" x2="885.741" y2="305.457" gradientUnits="userSpaceOnUse"><stop stop-color="#72CAC4"/><stop offset="1" stop-color="#949CF7"/></linearGradient><linearGradient id="paint15_linear" x1="-243.261" y1="302.734" x2="953.989" y2="302.734" gradientUnits="userSpaceOnUse"><stop stop-color="#4FE2D3"/><stop offset="1" stop-color="#949CF7"/></linearGradient><linearGradient id="paint16_linear" x1="-148.157" y1="327.041" x2="1025.05" y2="327.041" gradientUnits="userSpaceOnUse"><stop stop-color="#50E8CD"/><stop offset="1" stop-color="#949CF7"/></linearGradient><linearGradient id="paint17_linear" x1="-53.042" y1="351.524" x2="1095.35" y2="351.524" gradientUnits="userSpaceOnUse"><stop stop-color="#51EEC7"/><stop offset="1" stop-color="#949CF7"/></linearGradient><linearGradient id="paint18_linear" x1="42.073" y1="376.007" x2="1165.64" y2="376.007" gradientUnits="userSpaceOnUse"><stop stop-color="#53F3C1"/><stop offset="1" stop-color="#949CF7"/></linearGradient><linearGradient id="paint19_linear" x1="137.187" y1="400.489" x2="1235.94" y2="400.489" gradientUnits="userSpaceOnUse"><stop stop-color="#54F9BB"/><stop offset="1" stop-color="#949CF7"/></linearGradient><linearGradient id="paint20_linear" x1="232.313" y1="425.148" x2="1305.47" y2="425.148" gradientUnits="userSpaceOnUse"><stop stop-color="#55FFB5"/><stop offset="1" stop-color="#949CF7"/></linearGradient><clipPath id="clip0"><path fill="#fff" d="M0 0h1438v751H0z"/></clipPath></defs></svg>