<svg width="17" height="20" fill="none" xmlns="http://www.w3.org/2000/svg"><g clip-path="url(#clip0)"><path d="M16.466 2.576L14.498.549A1.796 1.796 0 0013.21 0H6.679C5.673 0 4.857.84 4.857 1.875V3.75H1.821C.815 3.75 0 4.59 0 5.625v12.5C0 19.16.815 20 1.821 20h8.5c1.006 0 1.822-.84 1.822-1.875V16.25h3.036c1.005 0 1.821-.84 1.821-1.875V3.902a1.9 1.9 0 00-.534-1.326zm-6.372 15.549H2.049a.225.225 0 01-.16-.069.238.238 0 01-.068-.165V5.859c0-.062.024-.121.067-.165a.224.224 0 01.161-.069h2.808v8.75c0 1.036.816 1.875 1.822 1.875h3.642v1.64a.238.238 0 01-.066.166.225.225 0 01-.161.069zm4.857-3.75H6.906a.225.225 0 01-.16-.069.238.238 0 01-.067-.165V2.109c0-.062.024-.121.066-.165a.224.224 0 01.161-.069h4.023v3.438c0 .517.407.937.91.937h3.34v7.89a.238.238 0 01-.067.166.225.225 0 01-.161.069zm.228-10H12.75v-2.5h.366c.06 0 .118.025.16.069l1.836 1.889a.237.237 0 01.067.166v.376z" fill="#fff"/></g><defs><clipPath id="clip0"><path fill="#fff" d="M0 0h17v20H0z"/></clipPath></defs></svg>