<svg width="25" height="27" fill="none" xmlns="http://www.w3.org/2000/svg"><path d="M10.578.068c-1.72.256-3.915 1.1-5.376 2.077A13.607 13.607 0 001.13 6.418C.716 7.111.002 8.544.002 8.683c0 .11-.183.014 2.882 1.572L5.317 11.5l-.04.25c-.313 1.842-.116 3.594.55 4.965.992 2.022 2.515 3.345 4.601 4.003.666.207.727.214 1.978.221 1.203 0 1.339-.014 1.97-.187 1.286-.36 2.53-1.128 3.467-2.14l.462-.498 1.312.672c.72.367 1.332.7 1.353.74.129.208-1.502 1.947-2.413 2.577-.7.485-1 .665-1.597.956-1.292.623-2.094.844-3.759 1.038-1.135.125-2.657-.069-4.003-.526-1.958-.658-3.61-1.849-4.955-3.566-.408-.513-.843-1.192-.843-1.31 0-.027-.06-.131-.136-.228l-.129-.173-1.169.602c-.645.326-1.203.651-1.243.714-.055.083-.055.152 0 .235.04.07.156.277.258.471.618 1.136 1.848 2.618 2.963 3.574 1.183 1.018 2.984 2.008 4.486 2.486 1.536.478 2.454.623 4.078.623 2.148 0 3.854-.409 5.825-1.392a12.595 12.595 0 003.48-2.507c1.094-1.087 1.889-2.223 2.684-3.816L25 18.281l-.421-.235c-1.142-.651-7.599-3.865-7.647-3.816-.034.034-.108.263-.176.512-.204.776-.544 1.365-1.17 1.995l-.023.023c-.635.642-1.157.935-2.104 1.175-.462.118-.693.138-1.223.11-1.19-.069-2.046-.463-2.923-1.364-.924-.935-1.325-1.911-1.318-3.185.013-2.043 1.203-3.705 3.12-4.37.414-.146.598-.166 1.393-.16.979 0 1.25.07 2.148.534.441.228 1.223.976 1.522 1.461.13.208.279.381.333.388.122 0 2.25-1.087 2.386-1.219.088-.083.081-.125-.027-.325-.7-1.24-1.904-2.417-3.1-3.027-.435-.221-1.318-.526-1.835-.63-.564-.11-2.345-.118-2.922 0-1.482.284-2.882 1.087-3.99 2.285l-.421.45-1.326-.678c-.734-.374-1.332-.713-1.332-.762 0-.256 1.502-1.89 2.277-2.472.455-.34.442-.333 1.135-.727 1.815-1.04 4.017-1.545 5.906-1.344 3.154.326 5.757 1.787 7.551 4.245.422.575.605.866.796 1.275.074.166.149.297.163.297.027 0 .523-.256 2.005-1.032.305-.166.557-.311.557-.325 0-.014-.075-.152-.17-.305a1.815 1.815 0 01-.17-.311c0-.083-.795-1.282-1.1-1.662-1.048-1.289-2.577-2.639-3.725-3.283-1.713-.956-3.1-1.454-4.751-1.704-.72-.11-3.154-.131-3.84-.027z" fill="url(#paint0_linear)"/><path d="M16.932 14.23c-.034.034-.108.263-.176.512-.204.776-.544 1.365-1.17 1.995l-.023.023L12 15l1.46-2.5.328.164.164.082.165.081 2.815 1.403z" fill="url(#paint1_linear)"/><path d="M13.46 12.5L12 15l-2-1 3.46-1.5z" fill="url(#paint2_linear)"/><defs><linearGradient id="paint0_linear" x1="23.5" y1="27" x2="-1.5" y2="-2.5" gradientUnits="userSpaceOnUse"><stop stop-color="#2461B3"/><stop offset="1" stop-color="#4DD5F3"/></linearGradient><linearGradient id="paint1_linear" x1="23.5" y1="27" x2="-1.5" y2="-2.5" gradientUnits="userSpaceOnUse"><stop stop-color="#2461B3"/><stop offset="1" stop-color="#4DD5F3"/></linearGradient><linearGradient id="paint2_linear" x1="23.5" y1="27" x2="-1.5" y2="-2.5" gradientUnits="userSpaceOnUse"><stop stop-color="#2461B3"/><stop offset="1" stop-color="#4DD5F3"/></linearGradient></defs></svg>