<svg width="16" height="16" fill="none" xmlns="http://www.w3.org/2000/svg"><path d="M11.7 4.041a5.38 5.38 0 00-3.705-1.46 5.426 5.426 0 00-5.251 4.092.388.388 0 01-.376.295H.519a.387.387 0 01-.38-.458 8.002 8.002 0 0113.387-4.294l1.152-1.152A.774.774 0 0116 1.61v4.324a.774.774 0 01-.774.775H10.9a.774.774 0 01-.547-1.322L11.7 4.041zM.775 9.291H5.1c.69 0 1.035.833.547 1.321L4.3 11.959a5.381 5.381 0 003.706 1.46 5.426 5.426 0 005.251-4.092.388.388 0 01.376-.295h1.849c.242 0 .425.22.38.458a8.002 8.002 0 01-13.387 4.294l-1.152 1.152A.774.774 0 010 14.39v-4.324c0-.428.347-.775.774-.775z" fill="#fff"/></svg>