<svg width="1438" height="751" viewBox="0 0 1438 751" fill="none" xmlns="http://www.w3.org/2000/svg">
<g opacity="0.05" clip-path="url(#clip0)">
<path d="M-268.043 350.467C-268.043 350.467 -266.749 348.339 -264.304 344.208C-263.154 342.206 -261.285 339.702 -259.415 336.824C-258.409 335.322 -257.258 333.945 -256.108 332.318C-255.533 331.566 -254.957 330.69 -254.238 329.814C-253.519 328.938 -252.8 328.187 -252.081 327.311C-246.329 320.301 -238.564 312.291 -228.067 304.531C-222.89 300.65 -216.85 297.021 -210.236 293.516C-203.621 290.011 -196.431 286.882 -188.809 283.753C-173.567 277.62 -156.454 271.862 -139.63 263.601C-122.805 255.465 -106.7 244.325 -92.8948 230.432C-85.8486 223.673 -79.809 215.913 -74.4884 207.777C-69.1678 199.641 -64.4224 191.004 -60.396 181.992C-52.1994 164.093 -45.8722 145.318 -40.264 126.418C-34.6558 107.518 -29.6228 88.4928 -24.446 69.7178C-19.2692 51.068 -13.8048 32.6685 -7.33383 15.2703C-0.862823 -2.12783 6.61478 -18.775 15.6742 -33.5447C24.5898 -48.1892 35.5186 -61.2065 47.7416 -71.345C53.7812 -76.3517 60.1084 -80.8577 66.5794 -84.4875C73.0504 -88.1173 79.5214 -90.9962 85.8486 -93.3743C98.503 -98.0055 110.295 -100.258 119.929 -101.51C122.374 -101.886 124.675 -102.136 126.832 -102.261C128.989 -102.386 131.002 -102.637 133.015 -102.762C136.898 -102.887 140.061 -103.137 142.65 -103.137C147.97 -103.137 150.702 -103.137 150.702 -103.137C150.702 -103.137 147.826 -103.137 142.65 -103.137C140.061 -103.137 136.754 -102.887 133.015 -102.762C131.146 -102.637 129.132 -102.386 126.832 -102.261C124.675 -102.136 122.374 -101.76 119.929 -101.51C110.295 -100.258 98.503 -97.8803 85.8486 -93.2492C79.5214 -90.871 73.0504 -87.9922 66.7232 -84.3623C60.2522 -80.7325 53.925 -76.3517 47.8854 -71.2198C35.6624 -61.0813 24.8774 -48.064 15.818 -33.2943C6.75858 -18.3995 -0.719025 -1.87749 -7.04623 15.5207C-13.5172 33.044 -18.8378 51.3183 -24.0146 70.0933C-29.1914 88.7432 -34.0806 107.894 -39.6888 126.794C-45.297 145.694 -51.4804 164.594 -59.677 182.493C-63.7034 191.505 -68.4488 200.142 -73.7694 208.402C-79.09 216.538 -85.1296 224.424 -92.1758 231.308C-105.981 245.202 -122.23 256.466 -139.055 264.728C-155.879 273.114 -172.991 278.746 -188.234 285.005C-195.856 288.134 -203.046 291.263 -209.517 294.767C-215.988 298.272 -222.027 301.902 -227.204 305.657C-237.558 313.292 -245.323 321.303 -250.931 328.187C-251.65 329.063 -252.369 329.939 -252.944 330.69C-253.519 331.566 -254.238 332.318 -254.814 333.194C-255.964 334.821 -257.114 336.198 -258.121 337.7C-259.99 340.578 -261.716 342.957 -262.866 344.959C-265.311 348.965 -266.605 351.218 -266.605 351.218L-268.043 350.467Z" fill="url(#paint0_linear)"/>
<path d="M-264.736 409.921C-209.229 334.195 -128.989 345.46 -58.239 282.001C-18.694 246.453 3.73876 194.885 7.90896 136.682C13.9486 51.6939 11.6478 -15.1451 93.47 -63.084C120.936 -79.2305 153.722 -86.9908 188.09 -96.0028" stroke="url(#paint1_linear)" stroke-miterlimit="10"/>
<path d="M-262.147 469.125C-199.019 400.909 -102.961 397.905 -25.0213 334.195C23.5831 294.517 52.9183 240.07 47.7415 174.858C40.1201 75.3504 18.1187 15.7711 124.818 -44.3089C157.173 -62.5833 194.13 -70.0933 225.478 -88.6179" stroke="url(#paint2_linear)" stroke-miterlimit="10"/>
<path d="M-259.415 528.328C-188.666 467.748 -76.3579 450.6 8.34031 386.39C66.0041 342.706 101.81 285.255 87.8617 213.159C65.7165 99.0068 24.4459 46.562 156.167 -25.6592C193.411 -46.0614 234.538 -53.321 262.866 -81.4835" stroke="url(#paint3_linear)" stroke-miterlimit="10"/>
<path d="M-256.683 587.532C-178.456 534.462 -49.7548 503.42 41.702 438.584C108.713 391.146 150.559 330.565 127.838 251.46C91.0254 122.789 30.6294 76.9775 187.515 -7.00931C229.649 -29.6645 275.089 -36.6738 300.254 -74.2238" stroke="url(#paint4_linear)" stroke-miterlimit="10"/>
<path d="M-254.382 646.235C-254.382 646.235 -253.376 645.735 -251.506 644.733C-249.637 643.732 -246.761 642.23 -243.022 640.353C-235.544 636.598 -224.472 631.216 -210.236 624.832C-195.999 618.448 -178.456 610.938 -158.18 602.427C-138.048 593.916 -115.184 584.528 -90.3064 574.139C-65.5728 563.625 -38.826 551.985 -11.2164 538.592C16.3932 525.199 44.8656 510.179 72.3314 492.03C86.1362 483.018 99.3658 473.13 112.02 462.366C124.531 451.476 136.322 439.71 146.388 426.568C151.421 420.059 156.023 413.175 159.906 406.041C163.788 398.906 167.383 391.521 169.972 383.886C175.292 368.741 177.737 352.594 177.018 336.698L176.874 333.694L176.586 330.69C176.443 328.688 176.299 326.685 176.011 324.682C175.436 320.677 174.861 316.797 173.998 312.791C172.416 304.906 169.972 297.271 167.383 289.636C161.919 274.49 155.735 259.47 149.121 244.826C142.65 230.181 135.603 215.787 128.845 201.393C122.23 187.124 115.615 172.855 110.87 158.461C108.569 151.201 106.7 143.942 105.693 136.557C105.262 132.927 104.974 129.172 104.974 125.542C104.974 121.912 105.405 118.282 105.981 114.653C106.7 111.023 107.562 107.518 108.713 104.139C110.007 100.759 111.301 97.3797 113.171 94.2505C116.622 87.867 120.936 81.9842 125.681 76.4768C135.316 65.4622 146.676 56.325 158.036 48.064C169.54 39.803 181.188 32.5433 192.692 25.9095C198.444 22.53 204.052 19.4008 209.66 16.3968C215.269 13.3928 220.733 10.3888 226.197 7.76034C237.126 2.37817 247.911 -2.00266 258.121 -6.25833C268.187 -10.514 277.678 -14.5193 286.018 -18.6498C294.502 -22.7803 301.836 -27.1612 308.02 -31.6672C314.203 -36.1732 319.092 -40.8043 322.975 -45.06C326.857 -49.3157 329.733 -53.321 331.747 -56.5753C332.897 -58.2025 333.616 -59.7045 334.335 -60.9562C335.054 -62.2078 335.629 -63.3343 336.061 -64.2105C336.923 -65.9628 337.355 -66.839 337.355 -66.839C337.355 -66.839 336.923 -65.9628 336.061 -64.0853C335.629 -63.2092 335.054 -62.0827 334.335 -60.831C333.616 -59.5793 332.753 -58.0773 331.747 -56.4502C329.733 -53.1958 326.857 -49.1905 322.975 -44.9348C319.092 -40.6792 314.203 -36.048 308.02 -31.542C301.836 -27.036 294.502 -22.6552 286.018 -18.3995C277.678 -14.1438 268.187 -10.1385 258.121 -6.00799C248.055 -1.75233 237.27 2.62851 226.341 8.01067C220.877 10.6392 215.412 13.6432 209.804 16.6472C204.196 19.6512 198.588 22.9055 192.836 26.1598C181.332 32.7937 169.684 40.0533 158.18 48.3143C146.82 56.5753 135.46 65.7125 125.825 76.7272C121.08 82.2345 116.766 88.1173 113.314 94.5008C111.589 97.63 110.151 101.009 109 104.389C107.85 107.768 106.987 111.273 106.268 114.903C105.693 118.533 105.405 122.037 105.262 125.667C105.262 129.297 105.549 132.927 105.981 136.682C106.987 143.942 108.857 151.326 111.157 158.461C115.903 172.855 122.518 186.999 129.132 201.268C135.891 215.537 142.793 229.931 149.408 244.576C156.023 259.22 162.206 274.24 167.671 289.385C170.259 297.02 172.848 304.781 174.286 312.666C175.292 316.546 175.724 320.552 176.299 324.557C176.586 326.56 176.73 328.562 176.874 330.565L177.162 333.569L177.305 336.573C178.024 352.594 175.58 368.741 170.259 384.011C167.671 391.646 164.22 399.031 160.193 406.291C156.311 413.425 151.709 420.31 146.676 426.943C136.754 440.086 124.818 451.977 112.308 462.991C99.6534 473.881 86.28 483.769 72.4752 492.781C45.0094 510.93 16.3932 526.075 -11.2164 539.468C-38.826 552.861 -65.5728 564.502 -90.3064 575.141C-115.04 585.655 -137.904 595.042 -158.18 603.554C-178.312 612.065 -195.856 619.575 -210.092 625.958C-224.328 632.342 -235.401 637.724 -242.878 641.479C-246.617 643.357 -249.493 644.859 -251.362 645.86C-253.232 646.861 -254.238 647.362 -254.238 647.362L-254.382 646.235Z" fill="url(#paint5_linear)"/>
<path d="M-249.349 657.626C-132.152 594.417 79.5213 564.376 168.965 454.105C205.634 408.919 211.386 359.979 192.836 301.777C188.378 287.883 184.064 274.616 180.325 261.849C156.454 182.869 139.055 148.573 182.338 104.89C204.627 82.2345 240.146 57.827 291.626 26.5354C336.78 -0.876148 379.201 -16.6472 390.848 -66.839" stroke="url(#paint6_linear)" stroke-miterlimit="10"/>
<path d="M-244.604 668.39C-118.635 599.298 102.529 595.793 197.725 473.13C236.695 423.063 234.106 372.621 217.857 313.668C213.974 299.274 210.379 285.38 207.791 271.487C192.117 188 190.104 162.341 248.055 120.16C277.822 98.5062 317.366 73.5981 364.101 41.0547C407.385 10.8896 442.616 -13.6431 443.767 -66.9641" stroke="url(#paint7_linear)" stroke-miterlimit="10"/>
<path d="M-240.721 679.154C-105.981 604.18 124.531 627.085 225.622 492.281C266.893 437.332 255.964 385.513 241.872 325.684C238.42 310.914 235.688 296.27 234.394 281.375C226.916 193.383 240.146 176.11 312.909 135.556C350.009 114.778 393.724 89.4942 435.714 55.8244C476.985 22.6552 505.169 -10.5139 495.822 -66.9641" stroke="url(#paint8_linear)" stroke-miterlimit="10"/>
<path d="M-238.852 689.919C-95.1956 609.061 144.519 658.377 251.506 511.306C295.078 451.351 275.808 398.155 264.017 337.575C261.141 322.304 259.128 306.909 259.128 291.138C259.559 198.64 288.319 189.753 375.893 150.951C420.471 131.05 467.925 105.14 505.457 70.4689C544.571 34.2957 565.997 -7.50994 546.152 -66.9641" stroke="url(#paint9_linear)" stroke-miterlimit="10"/>
<path d="M-238.852 700.307C-238.852 700.307 -237.701 699.682 -235.401 698.43C-234.25 697.804 -232.812 697.053 -231.087 696.177C-229.361 695.301 -227.348 694.299 -225.047 693.173C-215.844 688.667 -202.183 682.659 -183.776 676.651C-165.37 670.643 -142.506 665.136 -115.759 660.505C-89.0122 655.873 -58.5266 652.369 -25.3088 648.864C7.90898 645.359 44.0028 641.855 81.6784 635.221C100.516 631.966 119.642 627.711 138.623 622.078C157.749 616.446 176.586 609.186 194.561 599.924C230.655 581.524 261.716 553.362 282.279 519.567C287.312 511.181 291.626 502.169 294.646 493.032C297.81 483.769 299.679 474.257 300.542 464.619C302.268 445.343 299.535 425.817 295.797 406.792C291.914 387.641 287.025 368.616 284.149 349.465C282.711 339.828 281.704 330.19 281.417 320.552C281.129 310.914 281.848 301.276 282.855 291.764C284.005 282.251 285.587 272.738 288.175 263.601C288.75 261.223 289.613 258.97 290.332 256.717C291.051 254.464 292.058 252.211 292.777 249.958C294.646 245.577 296.803 241.196 299.392 237.066C301.836 232.935 304.856 228.93 308.163 225.3C309.889 223.548 311.471 221.67 313.484 220.043C315.21 218.291 317.223 216.789 319.236 215.162C327.145 209.028 336.204 204.022 345.551 199.766C354.898 195.51 364.389 192.006 373.88 188.501C383.371 185.122 392.862 181.867 402.209 178.738C420.903 172.355 439.309 166.096 456.709 158.962C474.109 151.952 490.502 144.192 505.888 135.806C521.131 127.42 535.224 118.283 547.734 108.645C572.899 89.369 591.162 66.9642 600.94 44.9349C605.829 33.9202 608.705 23.0307 610.143 12.767C610.431 10.2637 610.719 7.76037 610.862 5.25703C611.006 2.75371 611.006 0.375542 611.006 -2.00262C611.15 -4.38079 610.862 -6.63379 610.862 -8.8868C610.719 -11.1398 610.719 -13.2676 610.431 -15.3955C609.424 -23.9068 607.843 -31.2916 605.973 -37.8003C605.542 -39.4275 605.11 -40.9295 604.535 -42.4315C604.104 -43.9335 603.672 -45.3103 603.241 -46.6871C602.234 -49.3156 601.372 -51.819 600.509 -53.9468C599.79 -56.0746 598.783 -57.9521 598.064 -59.5793C597.345 -61.2065 596.77 -62.5833 596.195 -63.7098C595.188 -65.9628 594.757 -67.0893 594.757 -67.0893C594.757 -67.0893 595.332 -65.9628 596.195 -63.7098C596.626 -62.5833 597.345 -61.2065 598.064 -59.5793C598.783 -57.9521 599.646 -56.0746 600.509 -53.9468C601.372 -51.819 602.234 -49.3156 603.241 -46.6871C603.816 -45.3103 604.104 -43.9335 604.679 -42.4315C605.11 -40.9295 605.542 -39.4275 606.117 -37.8003C607.986 -31.4168 609.568 -23.9068 610.575 -15.3955C610.862 -13.2676 610.862 -11.1398 611.006 -8.8868C611.15 -6.63379 611.294 -4.38079 611.294 -2.00262C611.294 0.375542 611.294 2.75371 611.15 5.25703C610.862 7.76037 610.719 10.2637 610.431 12.767C609.137 22.9055 606.261 33.795 601.372 44.9349C591.593 67.0894 573.331 89.4942 548.166 108.77C535.655 118.408 521.563 127.545 506.32 135.931C491.077 144.317 474.54 152.078 457.14 159.087C439.74 166.096 421.334 172.48 402.64 178.863C393.293 182.118 383.802 185.247 374.311 188.751C364.821 192.131 355.33 195.761 345.983 200.016C336.78 204.272 327.72 209.154 319.811 215.287C317.798 216.914 315.929 218.416 314.059 220.168C312.19 221.795 310.608 223.673 308.882 225.425C305.719 229.18 302.699 232.935 300.254 237.191C297.666 241.321 295.653 245.702 293.783 250.083C292.921 252.336 292.058 254.589 291.339 256.842C290.62 259.095 289.901 261.348 289.326 263.726C286.737 272.989 285.155 282.376 284.005 291.889C282.855 301.401 282.279 311.039 282.567 320.677C282.855 330.315 283.861 339.953 285.299 349.465C288.319 368.616 293.208 387.641 296.947 406.792C300.83 425.942 303.562 445.468 301.836 464.869C300.973 474.507 299.104 484.145 295.94 493.407C292.921 502.669 288.607 511.681 283.574 520.193C263.01 554.113 231.806 582.275 195.568 600.925C177.593 610.313 158.611 617.572 139.486 623.205C120.361 628.837 101.235 633.093 82.3974 636.347C44.7218 642.981 8.62801 646.486 -24.7336 650.116C-57.9514 653.62 -88.437 657.125 -115.184 661.756C-141.931 666.262 -164.795 671.895 -183.057 677.903C-201.32 683.785 -215.125 689.794 -224.184 694.299C-226.485 695.426 -228.498 696.427 -230.08 697.303C-231.806 698.18 -233.244 699.056 -234.394 699.557C-236.695 700.808 -237.845 701.434 -237.845 701.434L-238.852 700.307Z" fill="url(#paint10_linear)"/>
<path d="M-238.852 707.317C-80.9594 621.578 191.398 693.674 309.889 538.968C368.416 461.865 317.798 381.508 334.766 301.401C355.042 205.774 398.47 207.026 503.444 167.598C624.811 121.662 725.183 44.0587 657.454 -79.2305" stroke="url(#paint11_linear)" stroke-miterlimit="10"/>
<path d="M-239.571 713.951C-76.0702 629.088 219.87 698.055 343.538 547.479C403.215 474.757 360.219 379.38 386.822 301.652C419.033 207.401 461.598 210.28 569.16 168.725C702.175 116.781 797.515 36.0481 719.719 -91.6219" stroke="url(#paint12_linear)" stroke-miterlimit="10"/>
<path d="M-240.434 720.459C-71.4686 636.473 247.767 701.935 376.9 555.865C437.44 487.399 402.352 377.127 438.446 301.902C483.024 209.028 524.295 213.534 634.302 169.726C778.965 111.774 869.415 28.0374 781.553 -104.013" stroke="url(#paint13_linear)" stroke-miterlimit="10"/>
<path d="M-241.584 726.968C-67.1546 643.857 275.233 705.815 410.118 564.251C471.52 499.916 444.63 374.874 490.07 302.027C547.015 210.656 586.848 216.664 699.443 170.727C855.754 106.642 941.027 19.9015 843.243 -116.53" stroke="url(#paint14_linear)" stroke-miterlimit="10"/>
<path d="M-243.31 732.976C-243.31 732.976 -241.728 732.35 -238.708 730.973C-235.688 729.597 -231.23 727.844 -225.335 725.466C-222.315 724.339 -219.007 723.088 -215.269 721.836C-211.53 720.585 -207.503 719.083 -203.046 717.831C-194.274 714.952 -183.92 712.073 -172.272 709.194C-148.977 703.437 -120.217 698.055 -86.8552 693.423C-53.4936 688.792 -15.6742 684.912 25.5964 681.282C66.867 677.527 111.589 673.897 158.755 668.515C182.338 665.762 206.497 662.632 230.943 658.502C255.389 654.371 280.266 649.365 305 642.731C329.733 636.097 354.323 627.586 377.763 616.446C401.058 605.306 423.203 591.287 441.466 573.764C450.813 565.128 458.003 554.864 463.899 544.225C469.795 533.46 474.252 522.195 478.135 510.68C485.613 487.649 490.358 463.868 495.103 440.086C499.705 416.304 504.163 392.523 510.634 369.242C513.941 357.601 517.68 346.086 522.569 334.821C527.458 323.681 533.354 312.792 540.832 302.903C544.714 298.022 548.597 293.266 552.479 288.384L553.917 286.632L555.499 284.879L558.663 281.375C560.676 278.997 562.833 276.744 564.846 274.365C565.853 273.239 567.003 272.112 568.01 270.986L571.317 267.606C573.474 265.353 575.775 263.226 577.932 260.973C580.233 258.845 582.677 256.842 584.978 254.714L588.43 251.585C589.58 250.459 590.874 249.582 592.168 248.581C594.613 246.704 597.201 244.701 599.646 242.823C600.796 241.822 602.234 240.946 603.529 240.07L607.411 237.441L611.294 234.813C612.588 233.937 614.026 233.186 615.32 232.309C618.052 230.682 620.785 229.055 623.517 227.553C626.393 226.176 629.269 224.674 632.001 223.297C633.439 222.546 634.877 221.795 636.315 221.17L640.629 219.292C643.505 218.04 646.381 216.664 649.401 215.412C652.421 214.285 655.296 213.034 658.316 211.907C661.192 210.656 664.212 209.654 667.232 208.528C670.252 207.401 673.128 206.275 676.148 205.273C682.043 203.146 687.939 201.018 693.835 198.89C705.627 194.634 717.274 190.504 728.635 186.123C751.499 177.486 773.644 168.349 794.639 158.711C815.634 148.948 835.478 138.56 853.74 127.295C872.003 116.03 888.684 104.014 902.92 90.871C917.156 77.7285 928.948 63.5847 937.432 48.9402C945.916 34.1705 950.806 18.9002 952.675 4.38086C954.544 -10.2636 953.538 -24.032 950.949 -36.5486C950.662 -38.0506 950.23 -39.6778 949.943 -41.1798C949.799 -41.9308 949.655 -42.6818 949.367 -43.4328C949.08 -44.1838 948.936 -44.9348 948.648 -45.6858C947.786 -48.6898 946.923 -51.5686 946.06 -54.3223C945.054 -57.076 944.047 -59.8297 943.04 -62.4581C942.609 -63.835 942.034 -65.0866 941.602 -66.3383C941.027 -67.59 940.452 -68.8416 939.877 -70.0933C938.726 -72.5966 937.72 -74.9748 936.713 -77.2278C935.707 -79.4808 934.412 -81.7338 933.262 -83.8616C932.112 -85.9895 931.105 -88.1173 929.954 -90.12C928.804 -92.1226 927.654 -94.0001 926.647 -95.7525C922.477 -103.137 918.307 -109.02 914.999 -113.902C914.28 -115.153 913.417 -116.28 912.555 -117.281C911.836 -118.282 911.117 -119.284 910.398 -120.16C909.104 -121.912 907.953 -123.539 907.09 -124.791C905.221 -127.294 904.358 -128.546 904.358 -128.546C904.358 -128.546 905.221 -127.294 907.09 -124.791C907.953 -123.539 909.104 -122.037 910.398 -120.285C911.117 -119.409 911.836 -118.408 912.555 -117.406C913.274 -116.405 914.136 -115.278 914.999 -114.027C918.163 -109.145 922.477 -103.262 926.647 -95.8776C927.654 -94.0001 928.804 -92.1226 929.954 -90.2451C930.961 -88.2425 932.112 -86.2398 933.262 -83.9868C934.412 -81.859 935.563 -79.7311 936.713 -77.353C937.72 -74.9748 938.87 -72.5966 939.877 -70.2185C940.452 -68.9668 941.027 -67.7151 941.602 -66.4635C942.034 -65.2118 942.609 -63.835 943.04 -62.5833C944.047 -59.9548 945.054 -57.2011 946.06 -54.4475C946.923 -51.5686 947.786 -48.6898 948.648 -45.811C948.936 -45.06 949.08 -44.309 949.367 -43.558C949.511 -42.807 949.655 -42.056 949.943 -41.305C950.23 -39.803 950.662 -38.1758 950.949 -36.6738C953.538 -24.1572 954.544 -10.3888 952.675 4.25569C950.806 18.775 945.916 34.1705 937.432 48.815C928.948 63.5847 917.156 77.7285 902.92 90.871C888.684 104.014 871.859 116.03 853.74 127.295C835.478 138.56 815.634 148.948 794.639 158.711C773.644 168.474 751.499 177.486 728.635 186.248C717.13 190.629 705.483 194.885 693.835 199.015C687.939 201.143 682.043 203.271 676.148 205.398C673.128 206.525 670.252 207.652 667.232 208.653C664.212 209.779 661.336 210.906 658.316 212.032C655.44 213.159 652.421 214.411 649.401 215.537C646.525 216.789 643.649 218.04 640.629 219.417L636.315 221.295C634.877 221.921 633.439 222.672 632.001 223.423C629.125 224.799 626.393 226.301 623.517 227.678C620.785 229.305 618.052 230.807 615.32 232.435C614.026 233.311 612.588 233.937 611.294 234.938L607.411 237.566L603.529 240.195C602.234 241.071 600.796 241.947 599.646 242.949C597.201 244.826 594.757 246.829 592.168 248.706C591.018 249.708 589.58 250.584 588.43 251.71L584.978 254.839C582.677 256.967 580.377 258.97 577.932 261.098C575.775 263.351 573.618 265.478 571.317 267.732L568.01 271.111C566.86 272.238 565.853 273.364 564.846 274.491C562.833 276.869 560.676 279.122 558.663 281.5L555.499 285.005L553.917 286.757L552.479 288.509C548.597 293.391 544.571 298.147 540.832 303.029C533.354 312.917 527.458 323.681 522.569 334.821C517.68 345.961 513.941 357.476 510.634 369.116C504.163 392.398 499.705 416.179 495.103 439.961C490.502 463.743 485.756 487.524 478.135 510.555C474.396 522.07 469.795 533.46 463.899 544.225C461.023 549.607 457.572 554.864 453.977 559.871C453.114 561.122 451.963 562.374 451.101 563.5C450.094 564.752 449.087 566.004 448.081 567.13L444.773 570.51C443.767 571.636 442.616 572.763 441.466 573.889C423.06 591.413 400.914 605.556 377.475 616.821C354.036 628.086 329.302 636.473 304.568 643.232C279.835 649.991 254.957 654.997 230.368 659.128C205.778 663.258 181.619 666.387 158.036 669.141C110.87 674.523 66.148 678.153 24.8774 681.908C-16.3932 685.663 -54.2126 689.543 -87.4304 694.174C-120.648 698.805 -149.408 704.188 -172.704 709.945C-184.352 712.824 -194.561 715.703 -203.477 718.582C-207.935 719.959 -211.961 721.336 -215.7 722.587C-219.439 723.839 -222.746 725.216 -225.622 726.217C-231.518 728.595 -235.976 730.348 -238.996 731.724C-242.015 732.976 -243.597 733.727 -243.597 733.727L-243.31 732.976Z" fill="url(#paint15_linear)"/>
<path d="M-147.826 749.122C28.3286 668.64 386.103 725.591 524.007 591.663C584.835 532.709 566.86 396.027 620.353 326.935C688.514 239.068 725.902 246.328 838.785 199.14C1003.15 130.549 1081.95 42.5567 976.258 -95.2518" stroke="url(#paint16_linear)" stroke-miterlimit="10"/>
<path d="M-52.7746 764.643C119.785 685.913 469.795 741.612 604.823 610.563C664.356 552.861 646.669 419.058 699.156 351.468C765.879 265.478 802.548 272.488 912.986 226.427C1073.9 159.212 1150.98 73.0973 1047.58 -61.7072" stroke="url(#paint17_linear)" stroke-miterlimit="10"/>
<path d="M42.421 780.164C211.242 703.061 553.774 757.634 685.782 629.463C744.021 572.888 726.765 442.089 778.102 375.876C843.387 291.764 879.193 298.648 987.187 253.588C1144.65 187.875 1220.14 103.513 1118.91 -28.4128" stroke="url(#paint18_linear)" stroke-miterlimit="10"/>
<path d="M137.473 795.685C302.555 720.334 637.465 773.655 766.598 648.238C823.542 592.915 806.718 464.994 856.904 400.283C920.751 318.049 955.838 324.808 1061.39 280.624C1215.4 216.413 1289.17 134.054 1190.23 5.00671" stroke="url(#paint19_linear)" stroke-miterlimit="10"/>
<path d="M232.381 810.705C232.381 810.705 233.819 810.079 236.407 808.952C238.996 807.701 243.166 806.073 248.486 803.945C259.128 799.94 275.089 794.433 296.084 789.301C316.935 784.169 342.819 779.288 372.73 775.157C402.64 771.027 436.433 767.522 473.533 764.268C510.49 760.888 550.61 757.634 592.887 752.878C614.026 750.499 635.596 747.621 657.597 743.991C679.599 740.361 701.888 735.855 724.033 729.847C746.178 723.839 768.323 716.329 789.174 706.315C810.025 696.302 829.87 683.786 846.263 668.015C854.603 660.254 861.074 651.117 866.251 641.479C871.572 631.841 875.598 621.703 878.906 611.439C885.664 590.787 889.978 569.508 894.148 548.23C898.319 526.952 902.201 505.673 908.097 484.771C910.973 474.382 914.424 463.993 918.882 453.98C923.196 443.966 928.517 434.203 935.275 425.316C938.726 420.935 942.321 416.68 945.773 412.299L947.067 410.672L948.505 409.045L951.237 405.915C953.106 403.788 954.976 401.785 956.845 399.657C957.708 398.656 958.715 397.655 959.721 396.653L962.741 393.649C964.754 391.647 966.624 389.644 968.637 387.641C970.794 385.764 972.807 383.886 974.964 382.009C977.121 380.131 979.134 378.254 981.435 376.501C983.736 374.749 985.893 372.997 988.05 371.244C989.2 370.368 990.351 369.617 991.501 368.741L995.096 366.363L998.691 363.985C999.841 363.234 1001.14 362.483 1002.43 361.732C1004.87 360.355 1007.32 358.853 1009.76 357.476C1019.97 352.219 1030.33 347.463 1040.97 343.332C1046.29 341.204 1051.61 339.327 1056.93 337.324C1062.25 335.447 1067.57 333.444 1072.89 331.566C1083.39 327.811 1093.89 324.057 1104.1 320.176C1124.66 312.416 1144.36 304.28 1163.2 295.519C1182.04 286.757 1199.72 277.495 1216.12 267.356C1232.51 257.218 1247.47 246.453 1260.26 234.688C1273.06 222.922 1283.56 210.28 1291.18 197.138C1298.8 183.995 1303.12 170.227 1304.84 157.209C1306.57 144.192 1305.56 131.801 1303.26 120.536C1302.97 119.159 1302.68 117.782 1302.4 116.405C1302.25 115.779 1302.11 115.028 1301.97 114.402C1301.82 113.777 1301.53 113.026 1301.39 112.4C1300.67 109.771 1299.81 107.143 1299.09 104.639C1298.23 102.136 1297.22 99.7578 1296.36 97.3797C1295.93 96.2532 1295.49 95.0015 1295.06 93.875C1294.49 92.7485 1294.06 91.622 1293.62 90.4955C1292.62 88.2425 1291.61 86.1147 1290.75 84.112C1289.74 81.9842 1288.74 80.1067 1287.73 78.2292C1286.72 76.3517 1285.72 74.4742 1284.85 72.7218C1283.85 70.9695 1282.84 69.3423 1281.83 67.59C1278.09 60.9562 1274.36 55.6992 1271.48 51.3183C1268.46 46.9375 1266.02 43.8083 1264.43 41.5553C1262.85 39.3023 1261.99 38.1758 1261.99 38.1758C1261.99 38.1758 1262.85 39.3023 1264.43 41.5553C1266.02 43.8083 1268.46 46.9375 1271.48 51.3183C1274.36 55.6992 1278.09 61.0813 1281.83 67.59C1282.84 69.2172 1283.85 70.9695 1284.85 72.7218C1285.86 74.4742 1286.72 76.3517 1287.73 78.2292C1288.74 80.1067 1289.74 82.1093 1290.75 84.112C1291.61 86.2398 1292.62 88.3677 1293.62 90.4955C1294.06 91.622 1294.63 92.7485 1295.06 93.875C1295.49 95.0015 1295.93 96.2532 1296.36 97.3797C1297.22 99.7578 1298.08 102.136 1299.09 104.639C1299.81 107.143 1300.53 109.771 1301.39 112.4C1301.53 113.026 1301.82 113.777 1301.97 114.402C1302.11 115.028 1302.25 115.779 1302.4 116.405C1302.68 117.782 1302.97 119.159 1303.26 120.536C1305.56 131.675 1306.57 144.192 1304.84 157.209C1303.12 170.227 1298.8 183.995 1291.18 197.138C1283.56 210.28 1272.92 223.047 1260.26 234.813C1247.47 246.578 1232.51 257.343 1216.12 267.481C1199.72 277.62 1181.89 286.882 1163.2 295.644C1144.36 304.405 1124.52 312.541 1104.1 320.302C1093.89 324.182 1083.39 327.937 1072.89 331.817C1067.57 333.694 1062.25 335.572 1056.93 337.575C1051.61 339.577 1046.29 341.455 1040.97 343.583C1030.33 347.713 1019.97 352.344 1009.91 357.726C1007.46 359.103 1005.02 360.605 1002.57 361.982C1001.42 362.733 1000.13 363.359 998.979 364.235L995.527 366.613L992.076 368.991C990.926 369.742 989.632 370.493 988.625 371.495C986.468 373.247 984.167 374.999 982.01 376.752C979.709 378.379 977.696 380.382 975.539 382.259C973.382 384.137 971.369 386.014 969.212 387.892C967.199 389.894 965.329 391.897 963.316 393.9L960.296 396.904C959.29 397.905 958.283 398.906 957.42 399.908C955.551 402.035 953.682 404.038 951.812 406.166L949.08 409.295L947.642 410.922L946.348 412.549C942.897 416.93 939.302 421.186 935.85 425.567C929.092 434.454 923.915 444.091 919.601 454.105C915.287 464.118 911.836 474.382 908.96 484.896C903.208 505.798 899.181 527.077 895.011 548.355C890.841 569.634 886.671 590.912 879.912 611.69C876.461 622.078 872.435 632.217 867.114 641.855C864.526 646.736 861.506 651.367 858.198 655.873C856.473 658.126 854.747 660.254 852.878 662.382L850.002 665.511C848.995 666.513 848.132 667.639 846.982 668.515C830.445 684.286 810.601 696.928 789.75 706.941C768.755 716.955 746.61 724.59 724.464 730.598C702.175 736.606 679.886 741.112 658.029 744.867C636.027 748.622 614.314 751.375 593.319 753.879C551.042 758.76 510.921 762.015 473.965 765.394C437.008 768.774 403.071 772.153 373.305 776.409C343.538 780.539 317.654 785.421 296.947 790.553C286.593 793.181 277.39 795.685 269.481 798.188C261.572 800.691 254.957 803.069 249.637 805.072C244.316 807.2 240.29 808.827 237.701 809.953C234.969 811.08 233.675 811.706 233.675 811.706L232.381 810.705Z" fill="url(#paint20_linear)"/>
<path d="M1050.46 922.979C1416 914.718 1579.93 686.164 1651.69 384.011" stroke="#55FFB5" stroke-width="2" stroke-miterlimit="10" stroke-linecap="round" stroke-dasharray="2.02 2.02"/>
<path d="M986.18 902.452C1189.66 890.811 1320.23 807.951 1421.18 687.791C1479.99 617.698 1528.74 543.349 1572.74 461.364C1593.16 423.314 1613.87 383.636 1625.66 337.575" stroke="#55FFB5" stroke-width="2" stroke-miterlimit="10" stroke-linecap="round" stroke-dasharray="2.08 2.08"/>
<path d="M913.993 882.675C1127.97 865.653 1252.21 767.897 1358.33 636.222C1419.74 559.745 1474.81 488.651 1531.33 411.673C1557.64 375.75 1586.69 338.951 1599.77 290.262" stroke="#55FFB5" stroke-width="2" stroke-miterlimit="10" stroke-linecap="round" stroke-dasharray="1.97 1.97"/>
<path d="M850.289 862.398C1070.16 838.241 1185.63 726.217 1295.64 584.528C1359.63 501.668 1420.89 433.953 1490.2 361.857C1522.27 328.563 1559.65 294.642 1573.89 243.95" stroke="#55FFB5" stroke-width="2" stroke-miterlimit="10" stroke-linecap="round" stroke-dasharray="2.04 2.04"/>
<path d="M779.252 843.248C1009.91 813.458 1117.76 686.289 1232.8 532.96C1299.38 443.716 1366.82 379.255 1448.79 312.166C1486.6 281.124 1532.76 250.208 1547.86 196.887" stroke="#55FFB5" stroke-width="2" stroke-miterlimit="10" stroke-linecap="round" stroke-dasharray="1.96 1.96"/>
<path d="M715.836 823.096C952.244 786.047 1051.32 644.483 1169.96 481.141C1239.27 385.513 1312.75 324.182 1407.37 262.224C1450.8 233.811 1505.44 206.024 1521.69 150.576" stroke="#55FFB5" stroke-width="2" stroke-miterlimit="10" stroke-linecap="round" stroke-dasharray="2.04 2.04"/>
<path d="M645.662 804.196C892.998 761.639 983.592 604.43 1107.26 429.572C1179.16 327.561 1258.68 269.359 1366.24 212.533C1415.57 186.498 1479.13 161.715 1496.1 103.513" stroke="#55FFB5" stroke-width="2" stroke-miterlimit="10" stroke-linecap="round" stroke-dasharray="1.97 1.97"/>
<path d="M582.246 784.294C835.334 734.353 917.013 562.749 1044.28 378.003C1118.76 269.734 1204.33 214.411 1324.69 162.842C1379.62 139.311 1451.66 117.782 1469.64 57.4515" stroke="#55FFB5" stroke-width="2" stroke-miterlimit="10" stroke-linecap="round" stroke-dasharray="2.06 2.06"/>
<path d="M512.647 765.645C776.664 710.071 849.427 522.696 981.579 326.31C1058.66 211.532 1150.11 159.087 1283.41 112.9C1344.24 91.6221 1425.35 73.4729 1443.9 10.2637" stroke="#55FFB5" stroke-width="2" stroke-miterlimit="10" stroke-linecap="round" stroke-dasharray="2.01 2.01"/>
<path d="M382.652 757.759C399.045 755.631 414.719 753.003 429.818 749.999" stroke="#55FFB5" stroke-width="2" stroke-miterlimit="10" stroke-linecap="round" stroke-dasharray="1.96 1.96"/>
<path d="M443.479 746.995C718.425 685.788 781.984 482.392 918.738 274.616C998.403 153.58 1096.04 104.139 1242 63.084C1308.72 44.309 1398.89 29.289 1417.87 -36.6738" stroke="#55FFB5" stroke-width="2" stroke-miterlimit="10" stroke-linecap="round" stroke-dasharray="1.96 1.96"/>
</g>
<defs>
<linearGradient id="paint0_linear" x1="-268.084" y1="123.928" x2="150.675" y2="123.928" gradientUnits="userSpaceOnUse">
<stop stop-color="#C2465C"/>
<stop offset="1" stop-color="#FF9CF7"/>
</linearGradient>
<linearGradient id="paint1_linear" x1="-265.368" y1="156.878" x2="188.282" y2="156.878" gradientUnits="userSpaceOnUse">
<stop stop-color="#B55A74"/>
<stop offset="1" stop-color="#EA9CF7"/>
</linearGradient>
<linearGradient id="paint2_linear" x1="-262.636" y1="190.173" x2="225.881" y2="190.173" gradientUnits="userSpaceOnUse">
<stop stop-color="#A86E8C"/>
<stop offset="1" stop-color="#D49CF7"/>
</linearGradient>
<linearGradient id="paint3_linear" x1="-259.895" y1="223.479" x2="263.418" y2="223.479" gradientUnits="userSpaceOnUse">
<stop stop-color="#9B81A3"/>
<stop offset="1" stop-color="#BF9CF7"/>
</linearGradient>
<linearGradient id="paint4_linear" x1="-257.146" y1="256.779" x2="300.898" y2="256.779" gradientUnits="userSpaceOnUse">
<stop stop-color="#8E95BB"/>
<stop offset="1" stop-color="#A99CF7"/>
</linearGradient>
<linearGradient id="paint5_linear" x1="-254.387" y1="290.185" x2="338.348" y2="290.185" gradientUnits="userSpaceOnUse">
<stop stop-color="#81A9D3"/>
<stop offset="1" stop-color="#949CF7"/>
</linearGradient>
<linearGradient id="paint6_linear" x1="-249.657" y1="295.521" x2="391.433" y2="295.521" gradientUnits="userSpaceOnUse">
<stop stop-color="#9A9CC4"/>
<stop offset="1" stop-color="#949CF7"/>
</linearGradient>
<linearGradient id="paint7_linear" x1="-244.922" y1="300.977" x2="444.498" y2="300.977" gradientUnits="userSpaceOnUse">
<stop stop-color="#B390B5"/>
<stop offset="1" stop-color="#949CF7"/>
</linearGradient>
<linearGradient id="paint8_linear" x1="-241.081" y1="306.339" x2="498.445" y2="306.339" gradientUnits="userSpaceOnUse">
<stop stop-color="#CD83A5"/>
<stop offset="1" stop-color="#949CF7"/>
</linearGradient>
<linearGradient id="paint9_linear" x1="-239.222" y1="311.696" x2="554.373" y2="311.696" gradientUnits="userSpaceOnUse">
<stop stop-color="#E67796"/>
<stop offset="1" stop-color="#949CF7"/>
</linearGradient>
<linearGradient id="paint10_linear" x1="-238.888" y1="317.186" x2="611.118" y2="317.186" gradientUnits="userSpaceOnUse">
<stop stop-color="#FF6A87"/>
<stop offset="1" stop-color="#949CF7"/>
</linearGradient>
<linearGradient id="paint11_linear" x1="-239.27" y1="314.158" x2="679.919" y2="314.158" gradientUnits="userSpaceOnUse">
<stop stop-color="#DC8296"/>
<stop offset="1" stop-color="#949CF7"/>
</linearGradient>
<linearGradient id="paint12_linear" x1="-239.93" y1="311.257" x2="748.289" y2="311.257" gradientUnits="userSpaceOnUse">
<stop stop-color="#B99AA5"/>
<stop offset="1" stop-color="#949CF7"/>
</linearGradient>
<linearGradient id="paint13_linear" x1="-240.839" y1="308.356" x2="816.907" y2="308.356" gradientUnits="userSpaceOnUse">
<stop stop-color="#95B2B5"/>
<stop offset="1" stop-color="#949CF7"/>
</linearGradient>
<linearGradient id="paint14_linear" x1="-241.963" y1="305.457" x2="885.741" y2="305.457" gradientUnits="userSpaceOnUse">
<stop stop-color="#72CAC4"/>
<stop offset="1" stop-color="#949CF7"/>
</linearGradient>
<linearGradient id="paint15_linear" x1="-243.261" y1="302.734" x2="953.989" y2="302.734" gradientUnits="userSpaceOnUse">
<stop stop-color="#4FE2D3"/>
<stop offset="1" stop-color="#949CF7"/>
</linearGradient>
<linearGradient id="paint16_linear" x1="-148.157" y1="327.041" x2="1025.05" y2="327.041" gradientUnits="userSpaceOnUse">
<stop stop-color="#50E8CD"/>
<stop offset="1" stop-color="#949CF7"/>
</linearGradient>
<linearGradient id="paint17_linear" x1="-53.0422" y1="351.524" x2="1095.35" y2="351.524" gradientUnits="userSpaceOnUse">
<stop stop-color="#51EEC7"/>
<stop offset="1" stop-color="#949CF7"/>
</linearGradient>
<linearGradient id="paint18_linear" x1="42.0727" y1="376.007" x2="1165.64" y2="376.007" gradientUnits="userSpaceOnUse">
<stop stop-color="#53F3C1"/>
<stop offset="1" stop-color="#949CF7"/>
</linearGradient>
<linearGradient id="paint19_linear" x1="137.187" y1="400.489" x2="1235.94" y2="400.489" gradientUnits="userSpaceOnUse">
<stop stop-color="#54F9BB"/>
<stop offset="1" stop-color="#949CF7"/>
</linearGradient>
<linearGradient id="paint20_linear" x1="232.313" y1="425.148" x2="1305.47" y2="425.148" gradientUnits="userSpaceOnUse">
<stop stop-color="#55FFB5"/>
<stop offset="1" stop-color="#949CF7"/>
</linearGradient>
<clipPath id="clip0">
<rect width="1438" height="751" fill="white"/>
</clipPath>
</defs>
</svg>
