<svg width="25" height="27" viewBox="0 0 25 27" fill="none" xmlns="http://www.w3.org/2000/svg">
<path d="M10.5776 0.0676765C8.85807 0.323911 6.66277 1.16879 5.2015 2.14525C3.57031 3.23252 2.13623 4.7353 1.13033 6.41814C0.715741 7.11066 0.00209827 8.54419 0.00209827 8.6827C0.00209827 8.7935 -0.18141 8.69655 2.88386 10.2547L5.31704 11.5013L5.27626 11.7506C4.96362 13.5927 5.16072 15.3448 5.82679 16.716C6.81909 18.7382 8.34153 20.0609 10.4281 20.7188C11.0942 20.9265 11.1553 20.9335 12.4059 20.9404C13.6089 20.9404 13.7448 20.9265 14.3769 20.7534C15.6615 20.3933 16.9052 19.6246 17.8432 18.6135L18.3053 18.1149L19.6171 18.7866C20.3375 19.1537 20.9492 19.4861 20.9696 19.5276C21.0988 19.7354 19.4676 21.4736 18.5568 22.1038C17.8568 22.5886 17.5577 22.7687 16.9596 23.0595C15.6683 23.6828 14.8663 23.9044 13.2011 24.0983C12.0661 24.223 10.5436 24.0291 9.1979 23.572C7.24048 22.9141 5.5889 21.723 4.24318 20.0055C3.83538 19.493 3.4004 18.8143 3.4004 18.6966C3.4004 18.6689 3.33923 18.565 3.26447 18.4681L3.13533 18.295L1.96632 18.8974C1.32064 19.2229 0.763318 19.5484 0.722538 19.6108C0.668165 19.6939 0.668165 19.7631 0.722538 19.8462C0.763318 19.9155 0.87886 20.1232 0.980809 20.3171C1.5993 21.4529 2.82948 22.9349 3.94413 23.8906C5.12674 24.9086 6.92783 25.8989 8.42988 26.3767C9.96592 26.8546 10.8835 27 12.5078 27C14.6556 27 16.3615 26.5914 18.3325 25.608C19.6919 24.9293 20.7249 24.1883 21.8124 23.1011C22.9066 22.0138 23.7018 20.8781 24.4971 19.2853L25 18.2811L24.5786 18.0456C23.4368 17.3947 16.98 14.1813 16.9324 14.2298C16.8985 14.2645 16.8237 14.493 16.7557 14.7423C16.5518 15.5179 16.212 16.1066 15.5867 16.7368C15.5789 16.7447 15.5712 16.7526 15.5634 16.7604C14.9284 17.4018 14.4062 17.6954 13.4594 17.9348C12.9972 18.0526 12.7661 18.0733 12.236 18.0456C11.0466 17.9764 10.1902 17.5817 9.31344 16.6814C8.3891 15.7465 7.98811 14.77 7.9949 13.4957C8.00849 11.4528 9.1979 9.79074 11.1145 9.12591C11.5291 8.98048 11.7126 8.95971 12.5078 8.96663C13.4866 8.96663 13.7584 9.03588 14.6556 9.49988C15.0974 9.72841 15.879 10.4763 16.178 10.9611C16.3071 11.1689 16.4567 11.342 16.511 11.3489C16.6334 11.3489 18.7607 10.2617 18.8967 10.1301C18.985 10.047 18.9782 10.0054 18.8695 9.80459C18.1694 8.56497 16.9664 7.38767 15.7702 6.77825C15.3352 6.55664 14.4517 6.25193 13.9351 6.14805C13.371 6.03725 11.5903 6.03032 11.0126 6.14805C9.53093 6.43199 8.13083 7.23532 7.02299 8.43339L6.6016 8.88353L5.27626 8.20485C4.54223 7.83089 3.94413 7.49155 3.94413 7.44308C3.94413 7.18684 5.44618 5.55248 6.22099 4.97076C6.67636 4.63142 6.66277 4.63835 7.35602 4.24361C9.17071 3.20482 11.3728 2.69927 13.2623 2.90011C16.4159 3.22559 19.019 4.68682 20.8133 7.14529C21.2347 7.72008 21.4182 8.01095 21.6085 8.41954C21.6833 8.58574 21.758 8.71732 21.7716 8.71732C21.7988 8.71732 22.295 8.46109 23.7766 7.68546C24.0825 7.51925 24.3339 7.37382 24.3339 7.35997C24.3339 7.34612 24.2592 7.20762 24.164 7.05526C24.0689 6.9029 23.9941 6.7644 23.9941 6.74362C23.9941 6.66052 23.1989 5.46245 22.8931 5.08156C21.8464 3.79346 20.3171 2.44304 19.1685 1.79899C17.4558 0.843305 16.0693 0.344686 14.4177 0.095377C13.6973 -0.0154271 11.2641 -0.0362023 10.5776 0.0676765Z" fill="url(#paint0_linear)"/>
<path d="M16.9324 14.2298C16.8985 14.2645 16.8237 14.493 16.7557 14.7423C16.5518 15.5179 16.212 16.1066 15.5867 16.7368C15.5789 16.7447 15.5712 16.7526 15.5634 16.7604L12 15L13.4594 12.5L13.788 12.6637L13.9524 12.7455L14.1167 12.8274L16.9324 14.2298Z" fill="url(#paint1_linear)"/>
<path d="M13.4594 12.5L12 15L10 14L13.4594 12.5Z" fill="url(#paint2_linear)"/>
<defs>
<linearGradient id="paint0_linear" x1="23.5" y1="27" x2="-1.5" y2="-2.5" gradientUnits="userSpaceOnUse">
<stop stop-color="#2461B3"/>
<stop offset="1" stop-color="#4DD5F3"/>
</linearGradient>
<linearGradient id="paint1_linear" x1="23.5" y1="27" x2="-1.5" y2="-2.5" gradientUnits="userSpaceOnUse">
<stop stop-color="#2461B3"/>
<stop offset="1" stop-color="#4DD5F3"/>
</linearGradient>
<linearGradient id="paint2_linear" x1="23.5" y1="27" x2="-1.5" y2="-2.5" gradientUnits="userSpaceOnUse">
<stop stop-color="#2461B3"/>
<stop offset="1" stop-color="#4DD5F3"/>
</linearGradient>
</defs>
</svg>
